<svg xmlns="http://www.w3.org/2000/svg" height="40" viewBox="0 -960 960 960" width="40"><path d="M787.641-137.335 530.872-394.104q-29.899 25.866-69.407 40.061-39.508 14.196-81.773 14.196-102.098 0-172.817-70.681-70.72-70.681-70.72-171.845 0-101.165 70.681-171.908 70.68-70.744 171.992-70.744 101.311 0 172.036 70.699t70.725 171.897q0 42.301-14.385 81.839-14.385 39.539-40.538 70.692l257.179 256.103-36.204 36.46ZM379.282-390.102q80.406 0 136.229-55.962 55.823-55.961 55.823-136.372 0-80.41-55.823-136.372-55.823-55.962-136.229-55.962-80.748 0-136.81 55.962T186.41-582.436q0 80.411 56.062 136.372 56.062 55.962 136.81 55.962Z"/></svg>